<mxfile host="app.diagrams.net" agent="Mozilla/5.0 (X11; Linux x86_64) AppleWebKit/537.36 (KHTML, like Gecko) Chrome/115.0.0.0 Safari/537.36" version="24.7.6">
  <diagram name="Page-1" id="tz6QD7412zIo4y__FKBL">
    <mxGraphModel dx="-4438" dy="6163" grid="1" gridSize="10" guides="1" tooltips="1" connect="1" arrows="1" fold="1" page="1" pageScale="1" pageWidth="850" pageHeight="1100" math="0" shadow="0">
      <root>
        <mxCell id="0" />
        <mxCell id="1" parent="0" />
        <mxCell id="S0KrKzeOifhWljf5Cxg5-1" value="candidato" style="swimlane;fontStyle=0;childLayout=stackLayout;horizontal=1;startSize=30;horizontalStack=0;resizeParent=1;resizeParentMax=0;resizeLast=0;collapsible=1;marginBottom=0;whiteSpace=wrap;html=1;" vertex="1" parent="1">
          <mxGeometry x="5490" y="-4270" width="161" height="196" as="geometry" />
        </mxCell>
        <mxCell id="S0KrKzeOifhWljf5Cxg5-2" value="PK&lt;span style=&quot;white-space: pre;&quot;&gt;&#x9;&lt;/span&gt;id&lt;span style=&quot;white-space: pre;&quot;&gt;&#x9;&lt;/span&gt;SERIAL" style="text;strokeColor=none;fillColor=none;align=left;verticalAlign=middle;spacingLeft=4;spacingRight=4;overflow=hidden;points=[[0,0.5],[1,0.5]];portConstraint=eastwest;rotatable=0;whiteSpace=wrap;html=1;" vertex="1" parent="S0KrKzeOifhWljf5Cxg5-1">
          <mxGeometry y="30" width="161" height="30" as="geometry" />
        </mxCell>
        <mxCell id="S0KrKzeOifhWljf5Cxg5-3" value="FK&lt;span style=&quot;white-space: pre;&quot;&gt;&#x9;&lt;/span&gt;cidadao_id INT" style="text;strokeColor=none;fillColor=none;align=left;verticalAlign=middle;spacingLeft=4;spacingRight=4;overflow=hidden;points=[[0,0.5],[1,0.5]];portConstraint=eastwest;rotatable=0;whiteSpace=wrap;html=1;" vertex="1" parent="S0KrKzeOifhWljf5Cxg5-1">
          <mxGeometry y="60" width="161" height="30" as="geometry" />
        </mxCell>
        <mxCell id="S0KrKzeOifhWljf5Cxg5-4" value="FK&lt;span style=&quot;white-space: pre;&quot;&gt;&#x9;&lt;/span&gt;partido_id INT" style="text;strokeColor=none;fillColor=none;align=left;verticalAlign=middle;spacingLeft=4;spacingRight=4;overflow=hidden;points=[[0,0.5],[1,0.5]];portConstraint=eastwest;rotatable=0;whiteSpace=wrap;html=1;" vertex="1" parent="S0KrKzeOifhWljf5Cxg5-1">
          <mxGeometry y="90" width="161" height="30" as="geometry" />
        </mxCell>
        <mxCell id="S0KrKzeOifhWljf5Cxg5-6" value="cargo&lt;span style=&quot;white-space: pre;&quot;&gt;&#x9;&lt;/span&gt;VARCHAR" style="text;strokeColor=none;fillColor=none;align=left;verticalAlign=middle;spacingLeft=4;spacingRight=4;overflow=hidden;points=[[0,0.5],[1,0.5]];portConstraint=eastwest;rotatable=0;whiteSpace=wrap;html=1;" vertex="1" parent="S0KrKzeOifhWljf5Cxg5-1">
          <mxGeometry y="120" width="161" height="38" as="geometry" />
        </mxCell>
        <mxCell id="S0KrKzeOifhWljf5Cxg5-7" value="registro_unico VARCHAR" style="text;strokeColor=none;fillColor=none;align=left;verticalAlign=middle;spacingLeft=4;spacingRight=4;overflow=hidden;points=[[0,0.5],[1,0.5]];portConstraint=eastwest;rotatable=0;whiteSpace=wrap;html=1;" vertex="1" parent="S0KrKzeOifhWljf5Cxg5-1">
          <mxGeometry y="158" width="161" height="38" as="geometry" />
        </mxCell>
        <mxCell id="S0KrKzeOifhWljf5Cxg5-8" value="partido" style="swimlane;fontStyle=0;childLayout=stackLayout;horizontal=1;startSize=30;horizontalStack=0;resizeParent=1;resizeParentMax=0;resizeLast=0;collapsible=1;marginBottom=0;whiteSpace=wrap;html=1;" vertex="1" parent="1">
          <mxGeometry x="5510" y="-4530" width="161" height="154" as="geometry" />
        </mxCell>
        <mxCell id="S0KrKzeOifhWljf5Cxg5-9" value="PK &lt;span style=&quot;white-space: pre;&quot;&gt;&#x9;&lt;/span&gt;id &lt;span style=&quot;white-space: pre;&quot;&gt;&#x9;&lt;/span&gt;SERIAL" style="text;strokeColor=none;fillColor=none;align=left;verticalAlign=middle;spacingLeft=4;spacingRight=4;overflow=hidden;points=[[0,0.5],[1,0.5]];portConstraint=eastwest;rotatable=0;whiteSpace=wrap;html=1;" vertex="1" parent="S0KrKzeOifhWljf5Cxg5-8">
          <mxGeometry y="30" width="161" height="30" as="geometry" />
        </mxCell>
        <mxCell id="S0KrKzeOifhWljf5Cxg5-10" value="nome &lt;span style=&quot;white-space: pre;&quot;&gt;&#x9;&lt;/span&gt;VARCHAR" style="text;strokeColor=none;fillColor=none;align=left;verticalAlign=middle;spacingLeft=4;spacingRight=4;overflow=hidden;points=[[0,0.5],[1,0.5]];portConstraint=eastwest;rotatable=0;whiteSpace=wrap;html=1;" vertex="1" parent="S0KrKzeOifhWljf5Cxg5-8">
          <mxGeometry y="60" width="161" height="30" as="geometry" />
        </mxCell>
        <mxCell id="S0KrKzeOifhWljf5Cxg5-11" value="sigla &lt;span style=&quot;white-space: pre;&quot;&gt;&#x9;&lt;/span&gt;VARCHAR" style="text;strokeColor=none;fillColor=none;align=left;verticalAlign=middle;spacingLeft=4;spacingRight=4;overflow=hidden;points=[[0,0.5],[1,0.5]];portConstraint=eastwest;rotatable=0;whiteSpace=wrap;html=1;" vertex="1" parent="S0KrKzeOifhWljf5Cxg5-8">
          <mxGeometry y="90" width="161" height="30" as="geometry" />
        </mxCell>
        <mxCell id="S0KrKzeOifhWljf5Cxg5-12" value="data_fundacao DATETIME" style="text;strokeColor=none;fillColor=none;align=left;verticalAlign=middle;spacingLeft=4;spacingRight=4;overflow=hidden;points=[[0,0.5],[1,0.5]];portConstraint=eastwest;rotatable=0;whiteSpace=wrap;html=1;" vertex="1" parent="S0KrKzeOifhWljf5Cxg5-8">
          <mxGeometry y="120" width="161" height="34" as="geometry" />
        </mxCell>
        <mxCell id="S0KrKzeOifhWljf5Cxg5-13" value="cidadao" style="swimlane;fontStyle=0;childLayout=stackLayout;horizontal=1;startSize=30;horizontalStack=0;resizeParent=1;resizeParentMax=0;resizeLast=0;collapsible=1;marginBottom=0;whiteSpace=wrap;html=1;" vertex="1" parent="1">
          <mxGeometry x="5480" y="-3935" width="161" height="170" as="geometry" />
        </mxCell>
        <mxCell id="S0KrKzeOifhWljf5Cxg5-14" value="PK &lt;span style=&quot;white-space: pre;&quot;&gt;&#x9;&lt;/span&gt;id&lt;span style=&quot;white-space: pre;&quot;&gt;&#x9;&lt;/span&gt;INT" style="text;strokeColor=none;fillColor=none;align=left;verticalAlign=middle;spacingLeft=4;spacingRight=4;overflow=hidden;points=[[0,0.5],[1,0.5]];portConstraint=eastwest;rotatable=0;whiteSpace=wrap;html=1;" vertex="1" parent="S0KrKzeOifhWljf5Cxg5-13">
          <mxGeometry y="30" width="161" height="30" as="geometry" />
        </mxCell>
        <mxCell id="S0KrKzeOifhWljf5Cxg5-15" value="nome_completo&lt;span style=&quot;white-space: pre;&quot;&gt;&#x9;&lt;/span&gt;VARCHAR" style="text;strokeColor=none;fillColor=none;align=left;verticalAlign=middle;spacingLeft=4;spacingRight=4;overflow=hidden;points=[[0,0.5],[1,0.5]];portConstraint=eastwest;rotatable=0;whiteSpace=wrap;html=1;" vertex="1" parent="S0KrKzeOifhWljf5Cxg5-13">
          <mxGeometry y="60" width="161" height="30" as="geometry" />
        </mxCell>
        <mxCell id="S0KrKzeOifhWljf5Cxg5-16" value="data_nascimento&lt;span style=&quot;white-space: pre;&quot;&gt;&#x9;&lt;/span&gt;DATE" style="text;strokeColor=none;fillColor=none;align=left;verticalAlign=middle;spacingLeft=4;spacingRight=4;overflow=hidden;points=[[0,0.5],[1,0.5]];portConstraint=eastwest;rotatable=0;whiteSpace=wrap;html=1;" vertex="1" parent="S0KrKzeOifhWljf5Cxg5-13">
          <mxGeometry y="90" width="161" height="30" as="geometry" />
        </mxCell>
        <mxCell id="S0KrKzeOifhWljf5Cxg5-17" value="cpf&lt;span style=&quot;white-space: pre;&quot;&gt;&#x9;&lt;/span&gt;VARCHAR" style="text;strokeColor=none;fillColor=none;align=left;verticalAlign=middle;spacingLeft=4;spacingRight=4;overflow=hidden;points=[[0,0.5],[1,0.5]];portConstraint=eastwest;rotatable=0;whiteSpace=wrap;html=1;" vertex="1" parent="S0KrKzeOifhWljf5Cxg5-13">
          <mxGeometry y="120" width="161" height="25" as="geometry" />
        </mxCell>
        <mxCell id="S0KrKzeOifhWljf5Cxg5-18" value="endereco&lt;span style=&quot;white-space: pre;&quot;&gt;&#x9;&lt;/span&gt;&lt;span style=&quot;white-space: pre;&quot;&gt;&#x9;&lt;/span&gt;VARCHAR" style="text;strokeColor=none;fillColor=none;align=left;verticalAlign=middle;spacingLeft=4;spacingRight=4;overflow=hidden;points=[[0,0.5],[1,0.5]];portConstraint=eastwest;rotatable=0;whiteSpace=wrap;html=1;" vertex="1" parent="S0KrKzeOifhWljf5Cxg5-13">
          <mxGeometry y="145" width="161" height="25" as="geometry" />
        </mxCell>
        <mxCell id="S0KrKzeOifhWljf5Cxg5-19" value="voto" style="swimlane;fontStyle=0;childLayout=stackLayout;horizontal=1;startSize=30;horizontalStack=0;resizeParent=1;resizeParentMax=0;resizeLast=0;collapsible=1;marginBottom=0;whiteSpace=wrap;html=1;" vertex="1" parent="1">
          <mxGeometry x="5760" y="-4249.5" width="161" height="189" as="geometry" />
        </mxCell>
        <mxCell id="S0KrKzeOifhWljf5Cxg5-20" value="PK &lt;span style=&quot;white-space: pre;&quot;&gt;&#x9;&lt;/span&gt;id&lt;span style=&quot;white-space: pre;&quot;&gt;&#x9;&lt;/span&gt;SERIAL" style="text;strokeColor=none;fillColor=none;align=left;verticalAlign=middle;spacingLeft=4;spacingRight=4;overflow=hidden;points=[[0,0.5],[1,0.5]];portConstraint=eastwest;rotatable=0;whiteSpace=wrap;html=1;" vertex="1" parent="S0KrKzeOifhWljf5Cxg5-19">
          <mxGeometry y="30" width="161" height="30" as="geometry" />
        </mxCell>
        <mxCell id="S0KrKzeOifhWljf5Cxg5-21" value="FK&lt;span style=&quot;white-space: pre;&quot;&gt;&#x9;&lt;/span&gt;cidadao_id&lt;span style=&quot;white-space: pre;&quot;&gt;&#x9;&lt;/span&gt;INT" style="text;strokeColor=none;fillColor=none;align=left;verticalAlign=middle;spacingLeft=4;spacingRight=4;overflow=hidden;points=[[0,0.5],[1,0.5]];portConstraint=eastwest;rotatable=0;whiteSpace=wrap;html=1;" vertex="1" parent="S0KrKzeOifhWljf5Cxg5-19">
          <mxGeometry y="60" width="161" height="30" as="geometry" />
        </mxCell>
        <mxCell id="S0KrKzeOifhWljf5Cxg5-22" value="FK&lt;span style=&quot;white-space: pre;&quot;&gt;&#x9;&lt;/span&gt;candidato_id&lt;span style=&quot;white-space: pre;&quot;&gt;&#x9;&lt;/span&gt;INT" style="text;strokeColor=none;fillColor=none;align=left;verticalAlign=middle;spacingLeft=4;spacingRight=4;overflow=hidden;points=[[0,0.5],[1,0.5]];portConstraint=eastwest;rotatable=0;whiteSpace=wrap;html=1;" vertex="1" parent="S0KrKzeOifhWljf5Cxg5-19">
          <mxGeometry y="90" width="161" height="30" as="geometry" />
        </mxCell>
        <mxCell id="S0KrKzeOifhWljf5Cxg5-34" value="&lt;span style=&quot;color: rgb(0, 0, 0); font-family: Helvetica; font-size: 12px; font-style: normal; font-variant-ligatures: normal; font-variant-caps: normal; font-weight: 400; letter-spacing: normal; orphans: 2; text-align: left; text-indent: 0px; text-transform: none; widows: 2; word-spacing: 0px; -webkit-text-stroke-width: 0px; white-space: normal; background-color: rgb(251, 251, 251); text-decoration-thickness: initial; text-decoration-style: initial; text-decoration-color: initial; display: inline !important; float: none;&quot;&gt;FK&lt;span style=&quot;white-space: pre;&quot;&gt;&#x9;&lt;/span&gt;eleicao_id&lt;span style=&quot;white-space: pre;&quot;&gt;&#x9;&lt;/span&gt;INT&lt;/span&gt;" style="text;whiteSpace=wrap;html=1;" vertex="1" parent="S0KrKzeOifhWljf5Cxg5-19">
          <mxGeometry y="120" width="161" height="40" as="geometry" />
        </mxCell>
        <mxCell id="S0KrKzeOifhWljf5Cxg5-23" value="data&lt;span style=&quot;white-space: pre;&quot;&gt;&#x9;&lt;/span&gt;&lt;span style=&quot;white-space: pre;&quot;&gt;&#x9;&lt;/span&gt;DATETIME" style="text;strokeColor=none;fillColor=none;align=left;verticalAlign=middle;spacingLeft=4;spacingRight=4;overflow=hidden;points=[[0,0.5],[1,0.5]];portConstraint=eastwest;rotatable=0;whiteSpace=wrap;html=1;" vertex="1" parent="S0KrKzeOifhWljf5Cxg5-19">
          <mxGeometry y="160" width="161" height="29" as="geometry" />
        </mxCell>
        <mxCell id="S0KrKzeOifhWljf5Cxg5-24" value="eleicao" style="swimlane;fontStyle=0;childLayout=stackLayout;horizontal=1;startSize=30;horizontalStack=0;resizeParent=1;resizeParentMax=0;resizeLast=0;collapsible=1;marginBottom=0;whiteSpace=wrap;html=1;" vertex="1" parent="1">
          <mxGeometry x="5770" y="-4420" width="161" height="90" as="geometry" />
        </mxCell>
        <mxCell id="S0KrKzeOifhWljf5Cxg5-25" value="PK&lt;span style=&quot;white-space: pre;&quot;&gt;&#x9;&lt;/span&gt;id&lt;span style=&quot;white-space: pre;&quot;&gt;&#x9;&lt;/span&gt;SERIAL" style="text;strokeColor=none;fillColor=none;align=left;verticalAlign=middle;spacingLeft=4;spacingRight=4;overflow=hidden;points=[[0,0.5],[1,0.5]];portConstraint=eastwest;rotatable=0;whiteSpace=wrap;html=1;" vertex="1" parent="S0KrKzeOifhWljf5Cxg5-24">
          <mxGeometry y="30" width="161" height="30" as="geometry" />
        </mxCell>
        <mxCell id="S0KrKzeOifhWljf5Cxg5-26" value="tipo&lt;span style=&quot;white-space: pre;&quot;&gt;&#x9;&lt;span style=&quot;white-space: pre;&quot;&gt;&#x9;&lt;/span&gt;V&lt;/span&gt;ARCHAR" style="text;strokeColor=none;fillColor=none;align=left;verticalAlign=middle;spacingLeft=4;spacingRight=4;overflow=hidden;points=[[0,0.5],[1,0.5]];portConstraint=eastwest;rotatable=0;whiteSpace=wrap;html=1;" vertex="1" parent="S0KrKzeOifhWljf5Cxg5-24">
          <mxGeometry y="60" width="161" height="30" as="geometry" />
        </mxCell>
        <mxCell id="S0KrKzeOifhWljf5Cxg5-32" style="edgeStyle=orthogonalEdgeStyle;rounded=0;orthogonalLoop=1;jettySize=auto;html=1;startArrow=ERzeroToOne;startFill=0;endArrow=ERone;endFill=0;entryX=0.554;entryY=-0.013;entryDx=0;entryDy=0;entryPerimeter=0;exitX=0.487;exitY=1.003;exitDx=0;exitDy=0;exitPerimeter=0;" edge="1" parent="1" source="S0KrKzeOifhWljf5Cxg5-7" target="S0KrKzeOifhWljf5Cxg5-13">
          <mxGeometry relative="1" as="geometry">
            <mxPoint x="5569" y="-4070" as="sourcePoint" />
            <mxPoint x="5570" y="-3830" as="targetPoint" />
          </mxGeometry>
        </mxCell>
        <mxCell id="S0KrKzeOifhWljf5Cxg5-33" style="edgeStyle=orthogonalEdgeStyle;rounded=0;orthogonalLoop=1;jettySize=auto;html=1;endArrow=ERzeroToMany;endFill=0;startArrow=ERmandOne;startFill=0;entryX=-0.008;entryY=0.241;entryDx=0;entryDy=0;entryPerimeter=0;" edge="1" parent="1" target="S0KrKzeOifhWljf5Cxg5-22">
          <mxGeometry relative="1" as="geometry">
            <mxPoint x="5651" y="-4153" as="sourcePoint" />
            <mxPoint x="5757" y="-4152" as="targetPoint" />
          </mxGeometry>
        </mxCell>
        <mxCell id="S0KrKzeOifhWljf5Cxg5-35" style="edgeStyle=orthogonalEdgeStyle;rounded=0;orthogonalLoop=1;jettySize=auto;html=1;startArrow=ERmandOne;startFill=0;endArrow=ERzeroToMany;endFill=0;" edge="1" parent="1">
          <mxGeometry relative="1" as="geometry">
            <mxPoint x="5590" y="-4377" as="sourcePoint" />
            <mxPoint x="5590" y="-4270" as="targetPoint" />
          </mxGeometry>
        </mxCell>
        <mxCell id="S0KrKzeOifhWljf5Cxg5-37" style="edgeStyle=orthogonalEdgeStyle;rounded=0;orthogonalLoop=1;jettySize=auto;html=1;entryX=0.438;entryY=1;entryDx=0;entryDy=0;entryPerimeter=0;endArrow=ERmandOne;endFill=0;startArrow=ERzeroToMany;startFill=0;" edge="1" parent="1" source="S0KrKzeOifhWljf5Cxg5-19" target="S0KrKzeOifhWljf5Cxg5-26">
          <mxGeometry relative="1" as="geometry" />
        </mxCell>
        <mxCell id="S0KrKzeOifhWljf5Cxg5-38" style="edgeStyle=orthogonalEdgeStyle;rounded=0;orthogonalLoop=1;jettySize=auto;html=1;entryX=1;entryY=0.5;entryDx=0;entryDy=0;exitX=0.5;exitY=1.017;exitDx=0;exitDy=0;exitPerimeter=0;startArrow=ERzeroToMany;startFill=0;endArrow=ERmandOne;endFill=0;" edge="1" parent="1" source="S0KrKzeOifhWljf5Cxg5-23" target="S0KrKzeOifhWljf5Cxg5-16">
          <mxGeometry relative="1" as="geometry" />
        </mxCell>
      </root>
    </mxGraphModel>
  </diagram>
</mxfile>
